<svg width="800" height="600" xmlns="http://www.w3.org/2000/svg">
  <!-- Client 1 -->
  <rect x="50" y="80" width="120" height="80" fill="#e3f2fd" stroke="#1976d2" stroke-width="2" rx="5"/>
  <text x="110" y="110" text-anchor="middle" font-family="Arial" font-size="12" font-weight="bold">Client 1</text>
  <text x="110" y="130" text-anchor="middle" font-family="Arial" font-size="10">(Sends data)</text>
  
  <!-- Client 2 -->
  <rect x="50" y="220" width="120" height="80" fill="#e3f2fd" stroke="#1976d2" stroke-width="2" rx="5"/>
  <text x="110" y="250" text-anchor="middle" font-family="Arial" font-size="12" font-weight="bold">Client 2</text>
  <text x="110" y="270" text-anchor="middle" font-family="Arial" font-size="10">(Sends data)</text>
  
  <!-- Receive Buffer 1 -->
  <rect x="250" y="80" width="140" height="80" fill="#fff3e0" stroke="#f57c00" stroke-width="2" rx="5"/>
  <text x="320" y="110" text-anchor="middle" font-family="Arial" font-size="12" font-weight="bold">Receive Buffer</text>
  <text x="320" y="130" text-anchor="middle" font-family="Arial" font-size="10">(Client 1 data)</text>
  
  <!-- Receive Buffer 2 -->
  <rect x="250" y="220" width="140" height="80" fill="#fff3e0" stroke="#f57c00" stroke-width="2" rx="5"/>
  <text x="320" y="250" text-anchor="middle" font-family="Arial" font-size="12" font-weight="bold">Receive Buffer</text>
  <text x="320" y="270" text-anchor="middle" font-family="Arial" font-size="10">(Client 2 data)</text>
  
  <!-- Server -->
  <rect x="480" y="150" width="160" height="120" fill="#e8f5e8" stroke="#388e3c" stroke-width="2" rx="5"/>
  <text x="560" y="180" text-anchor="middle" font-family="Arial" font-size="12" font-weight="bold">Server</text>
  <text x="560" y="200" text-anchor="middle" font-family="Arial" font-size="10">(Single-threaded)</text>
  <text x="560" y="220" text-anchor="middle" font-family="Arial" font-size="10">Processes</text>
  <text x="560" y="240" text-anchor="middle" font-family="Arial" font-size="10">Data</text>
  
  <!-- Server Processes Data -->
  <rect x="300" y="380" width="160" height="60" fill="#f3e5f5" stroke="#7b1fa2" stroke-width="2" rx="5"/>
  <text x="380" y="405" text-anchor="middle" font-family="Arial" font-size="12" font-weight="bold">Server Processes Data</text>
  
  <!-- Send Buffer -->
  <rect x="300" y="480" width="160" height="60" fill="#fce4ec" stroke="#c2185b" stroke-width="2" rx="5"/>
  <text x="380" y="515" text-anchor="middle" font-family="Arial" font-size="12" font-weight="bold">Send Buffer</text>
  
  <!-- Client 1 Response -->
  <rect x="50" y="480" width="140" height="60" fill="#e3f2fd" stroke="#1976d2" stroke-width="2" rx="5"/>
  <text x="120" y="505" text-anchor="middle" font-family="Arial" font-size="12" font-weight="bold">Client 1</text>
  <text x="120" y="525" text-anchor="middle" font-family="Arial" font-size="10">(Receives response)</text>
  
  <!-- Arrows -->
  <!-- Client 1 to Buffer 1 -->
  <defs>
    <marker id="arrowhead" markerWidth="10" markerHeight="7" refX="9" refY="3.5" orient="auto">
      <polygon points="0 0, 10 3.5, 0 7" fill="#333"/>
    </marker>
  </defs>
  
  <line x1="170" y1="120" x2="250" y2="120" stroke="#333" stroke-width="2" marker-end="url(#arrowhead)"/>
  
  <!-- Client 2 to Buffer 2 -->
  <line x1="170" y1="260" x2="250" y2="260" stroke="#333" stroke-width="2" marker-end="url(#arrowhead)"/>
  
  <!-- Buffer 1 to Server -->
  <line x1="390" y1="120" x2="480" y2="180" stroke="#333" stroke-width="2" marker-end="url(#arrowhead)"/>
  
  <!-- Buffer 2 to Server -->
  <line x1="390" y1="260" x2="480" y2="220" stroke="#333" stroke-width="2" marker-end="url(#arrowhead)"/>
  
  <!-- Server to Process -->
  <line x1="560" y1="270" x2="380" y2="380" stroke="#333" stroke-width="2" marker-end="url(#arrowhead)"/>
  
  <!-- Process to Send Buffer -->
  <line x1="380" y1="440" x2="380" y2="480" stroke="#333" stroke-width="2" marker-end="url(#arrowhead)"/>
  
  <!-- Send Buffer to Client 1 -->
  <line x1="300" y1="510" x2="190" y2="510" stroke="#333" stroke-width="2" marker-end="url(#arrowhead)"/>
  
  <!-- Labels for process flow -->
  <text x="480" y="330" font-family="Arial" font-size="10" fill="#666">(Server reads Client 1 data)</text>
  <text x="480" y="455" font-family="Arial" font-size="10" fill="#666">(Sends response)</text>
</svg>